<?xml version="1.0" encoding="utf-8"?>
<!-- Generator: Adobe Illustrator 26.0.2, SVG Export Plug-In . SVG Version: 6.00 Build 0)  -->
<svg version="1.1" id="Layer_1" xmlns="http://www.w3.org/2000/svg" xmlns:xlink="http://www.w3.org/1999/xlink" x="0px" y="0px"
	 viewBox="0 0 300 100" style="enable-background:new 0 0 300 100;" xml:space="preserve">
<style type="text/css">
	.st0{fill:#FFFFFF;}
</style>
<g>
	<path d="M54.4,50.8c0,2.4-0.4,4.7-1.3,6.8c-0.9,2.1-2.1,3.9-3.7,5.5c-1.6,1.6-3.4,2.8-5.5,3.7c-2.1,0.9-4.4,1.3-6.8,1.3
		c-2.4,0-4.7-0.4-6.8-1.3c-2.1-0.9-3.9-2.1-5.5-3.7c-1.6-1.6-2.8-3.4-3.7-5.5c-0.9-2.1-1.3-4.4-1.3-6.8c0-2.4,0.4-4.7,1.3-6.8
		c0.9-2.1,2.1-3.9,3.7-5.5c1.6-1.6,3.4-2.8,5.5-3.7c2.1-0.9,4.4-1.3,6.8-1.3c2,0,3.9,0.3,5.7,1c1.8,0.6,3.4,1.5,4.9,2.7V10.3h6.8
		V50.8L54.4,50.8z M37.1,61.4c1.4,0,2.8-0.3,4.1-0.8c1.3-0.5,2.4-1.3,3.4-2.3c1-1,1.7-2.1,2.3-3.4c0.5-1.3,0.8-2.7,0.8-4.1v-0.1
		c0-1.4-0.3-2.8-0.8-4.1c-0.5-1.3-1.3-2.4-2.3-3.3c-1-1-2.1-1.7-3.4-2.3c-1.3-0.5-2.7-0.8-4.1-0.8c-1.4,0-2.8,0.3-4.1,0.8
		c-1.3,0.5-2.4,1.3-3.4,2.3c-1,1-1.7,2.1-2.3,3.4c-0.6,1.3-0.9,2.7-0.9,4.1c0,1.4,0.3,2.8,0.9,4.1c0.6,1.3,1.3,2.4,2.3,3.4
		c1,1,2.1,1.7,3.4,2.3C34.3,61.1,35.6,61.4,37.1,61.4z"/>
	<path d="M96.9,33.6L81.7,65.2l-4,8.3l-8.1,16.9h-7.8L74,65L60.2,33.6h7.7l10.1,23l11.1-23H96.9z"/>
	<path d="M126.1,35.7c2.1,1.4,3.7,3.2,4.9,5.4c1.2,2.2,1.8,4.6,1.8,7.3v19.8h-6.8V61V48.4c0-1.1-0.2-2.2-0.7-3.3
		c-0.4-1-1-1.9-1.8-2.7c-0.8-0.8-1.7-1.4-2.7-1.8c-1-0.4-2.1-0.7-3.2-0.7s-2.2,0.2-3.3,0.7c-1,0.4-1.9,1-2.7,1.8
		c-0.7,0.8-1.3,1.7-1.8,2.7c-0.4,1-0.7,2.1-0.7,3.3V61v7.2h-6.8V48.4V33.3h6.8l0.1,2.5c1.2-0.8,2.5-1.4,3.9-1.8
		c1.4-0.4,2.9-0.7,4.4-0.7c1.5,0,3,0.2,4.4,0.7C123.6,34.3,124.9,35,126.1,35.7z"/>
	<path d="M158.7,33.5c2.4,0,4.7,0.5,6.8,1.4c2.1,0.9,4,2.2,5.6,3.7c1.6,1.6,2.9,3.4,3.8,5.6c0.9,2.1,1.4,4.4,1.4,6.8v17h-6.8v-3.2
		c-1.5,1.1-3.1,2-4.9,2.7c-1.8,0.7-3.7,1-5.8,1c-2.4,0-4.7-0.5-6.8-1.4c-2.1-0.9-4-2.2-5.5-3.7c-1.6-1.6-2.8-3.4-3.7-5.5
		c-0.9-2.1-1.4-4.4-1.4-6.8c0-2.4,0.5-4.7,1.4-6.8c0.9-2.1,2.2-4,3.7-5.6c1.6-1.6,3.4-2.8,5.5-3.7C154,34,156.2,33.5,158.7,33.5z
		 M158.7,61.7c1.5,0,2.9-0.3,4.2-0.9c1.3-0.6,2.4-1.3,3.4-2.3c1-1,1.7-2.1,2.3-3.4c0.6-1.3,0.9-2.7,0.9-4.1c0-1.5-0.3-2.9-0.9-4.2
		c-0.6-1.3-1.3-2.4-2.3-3.4c-1-1-2.1-1.7-3.4-2.3c-1.3-0.6-2.7-0.9-4.2-0.9c-1.5,0-2.9,0.3-4.2,0.9c-1.3,0.6-2.4,1.3-3.4,2.3
		c-1,1-1.7,2.1-2.3,3.4c-0.6,1.3-0.9,2.7-0.9,4.2c0,1.5,0.3,2.8,0.9,4.1c0.6,1.3,1.3,2.4,2.3,3.4c1,1,2.1,1.7,3.4,2.3
		C155.8,61.5,157.2,61.7,158.7,61.7z"/>
	<path d="M192.5,33.4v34.7h-6.8V33.4H192.5z"/>
	<path d="M210.7,48.5V61v7h-6.8V48.5v-15h6.8V36V48.5z"/>
	<path d="M238.4,33.4v34.7h-6.8V33.4H238.4z"/>
	<path d="M267.3,51.1l11.4,16.9h-8.1l-7.4-10.9l-7.3,10.9h-8.1l11.4-16.9l-11.8-17.7h8.1l7.7,11.6L267.3,51.1z"/>
	<circle class="st0" cx="189.2" cy="23.8" r="6"/>
	<circle class="st0" cx="220.1" cy="37.4" r="6"/>
	<circle class="st0" cx="235" cy="23.8" r="6"/>
	<circle class="st0" cx="274.3" cy="36.9" r="6"/>
</g>
</svg>
