<?xml version="1.0" encoding="utf-8"?>
<!-- Generator: Adobe Illustrator 26.3.1, SVG Export Plug-In . SVG Version: 6.00 Build 0)  -->
<svg version="1.1" id="Layer_1" xmlns="http://www.w3.org/2000/svg" xmlns:xlink="http://www.w3.org/1999/xlink" x="0px" y="0px"
	 viewBox="0 0 1920 1080" style="enable-background:new 0 0 1920 1080;" xml:space="preserve">
<style type="text/css">
	.st0{fill:none;}
	.st1{fill:url(#SVGID_1_);}
	.st2{fill:url(#SVGID_00000076590162197706783170000006812212852825885368_);}
	.st3{fill:url(#SVGID_00000049907844836866198480000003528764148702097845_);}
	.st4{fill:url(#SVGID_00000150079098501111121770000000393762999399634577_);}
	.st5{fill:url(#SVGID_00000035502959543580561180000006106683763754965152_);}
	.st6{fill:url(#SVGID_00000072250177705065006200000011625332026373111459_);}
	.st7{fill:url(#SVGID_00000039093513569491514300000004816607648893382816_);}
</style>
<polygon class="st0" points="709.2,256 918.3,823.6 1210.3,823.6 1001.2,256 "/>
<polygon class="st0" points="1143.7,256 1352.7,823.6 1644.7,823.6 1435.7,256 "/>
<polygon class="st0" points="274.8,256 483.8,823.6 775.8,823.6 566.8,256 "/>
<g>
	<linearGradient id="SVGID_1_" gradientUnits="userSpaceOnUse" x1="1568.1252" y1="1552.978" x2="1060.4464" y2="238.0583">
		<stop  offset="0" style="stop-color:#00ACFF"/>
		<stop  offset="1" style="stop-color:#0032FF"/>
	</linearGradient>
	<polygon class="st1" points="1001.2,256 1210.3,823.6 1352.7,823.6 1143.7,256 	"/>
</g>
<g>
	
		<linearGradient id="SVGID_00000117667162926324958650000002164983294301865380_" gradientUnits="userSpaceOnUse" x1="1920.3059" y1="1201.6263" x2="1433.1234" y2="157.8891">
		<stop  offset="0" style="stop-color:#00ACFF"/>
		<stop  offset="1" style="stop-color:#0032FF"/>
	</linearGradient>
	<polygon style="fill:url(#SVGID_00000117667162926324958650000002164983294301865380_);" points="1644.7,823.6 1787.1,823.6 
		1578.1,256 1435.7,256 	"/>
</g>
<polygon class="st0" points="699.7,256 490.7,823.6 782.7,823.6 991.7,256 "/>
<polygon class="st0" points="1134.1,256 925.1,823.6 1217.1,823.6 1426.1,256 "/>
<g>
	
		<linearGradient id="SVGID_00000182527606545772666800000011461796564519220355_" gradientUnits="userSpaceOnUse" x1="669.3846" y1="162.4953" x2="385.589" y2="898.7874">
		<stop  offset="0" style="stop-color:#00ACFF"/>
		<stop  offset="1" style="stop-color:#0032FF"/>
	</linearGradient>
	<polygon style="fill:url(#SVGID_00000182527606545772666800000011461796564519220355_);" points="699.7,256 557.2,256 348.2,823.6 
		490.7,823.6 	"/>
</g>
<g>
	
		<linearGradient id="SVGID_00000029764089104286974330000016511723043798412988_" gradientUnits="userSpaceOnUse" x1="1256.2689" y1="914.0591" x2="1663.0427" y2="-200.6271">
		<stop  offset="0" style="stop-color:#00ACFF"/>
		<stop  offset="1" style="stop-color:#0032FF"/>
	</linearGradient>
	<polygon style="fill:url(#SVGID_00000029764089104286974330000016511723043798412988_);" points="1217.1,823.6 1359.5,823.6 
		1568.6,256 1426.1,256 	"/>
</g>
<g>
	
		<linearGradient id="SVGID_00000085968043474592136740000005724742754784771758_" gradientUnits="userSpaceOnUse" x1="1071.1997" y1="224.9341" x2="852.0464" y2="836.6713">
		<stop  offset="0" style="stop-color:#00ACFF"/>
		<stop  offset="1" style="stop-color:#0032FF"/>
	</linearGradient>
	<polygon style="fill:url(#SVGID_00000085968043474592136740000005724742754784771758_);" points="991.7,256 782.7,823.6 
		925.1,823.6 1134.1,256 	"/>
</g>
<g>
	
		<linearGradient id="SVGID_00000122694878103659965300000009197465651543736243_" gradientUnits="userSpaceOnUse" x1="420.953" y1="844.8693" x2="140.3107" y2="86.5043">
		<stop  offset="0" style="stop-color:#00ACFF"/>
		<stop  offset="1" style="stop-color:#0032FF"/>
	</linearGradient>
	<polygon style="fill:url(#SVGID_00000122694878103659965300000009197465651543736243_);" points="274.8,256 132.3,256 341.4,823.6 
		483.8,823.6 	"/>
</g>
<g>
	
		<linearGradient id="SVGID_00000091721564054809500100000007263920333116655514_" gradientUnits="userSpaceOnUse" x1="866.6347" y1="864.0964" x2="614.3719" y2="205.0599">
		<stop  offset="0" style="stop-color:#00ACFF"/>
		<stop  offset="1" style="stop-color:#0032FF"/>
	</linearGradient>
	<polygon style="fill:url(#SVGID_00000091721564054809500100000007263920333116655514_);" points="566.8,256 775.8,823.6 
		918.3,823.6 709.2,256 	"/>
</g>
</svg>
